<svg width="152" height="50" viewBox="0 0 152 50" fill="none" xmlns="http://www.w3.org/2000/svg">
<path d="M150.661 44.2337C150.661 46.8982 148.739 49.0566 146.361 49.0566H5.64441C3.26789 49.0566 1.33887 46.8982 1.33887 44.2337V5.77256C1.33887 3.10926 3.26789 0.943359 5.64441 0.943359H146.36C148.739 0.943359 150.66 3.10926 150.66 5.77256L150.661 44.2337Z" fill="white"/>
<path d="M145.907 1.00156C148.497 1.00156 150.604 3.35625 150.604 6.25V43.75C150.604 46.6438 148.497 48.9984 145.907 48.9984H6.09259C3.50322 48.9984 1.39621 46.6438 1.39621 43.75V6.25C1.39621 3.35625 3.50322 1.00156 6.09259 1.00156H145.907ZM145.907 2.64247e-06H6.09259C3.01806 2.64247e-06 0.5 2.81407 0.5 6.25V43.75C0.5 47.1859 3.01806 50 6.09259 50H145.907C148.982 50 151.5 47.1859 151.5 43.75V6.25C151.5 2.81407 148.982 2.64247e-06 145.907 2.64247e-06Z" fill="#35605A"/>
<path d="M34.1986 24.73C34.1662 20.7012 37.1504 18.7412 37.2868 18.65C35.5968 15.8962 32.9772 15.52 32.0566 15.49C29.8565 15.2312 27.7224 16.9612 26.6016 16.9612C25.4585 16.9612 23.7326 15.515 21.8725 15.5575C19.4789 15.5987 17.2396 17.1475 16.0115 19.5525C13.4769 24.4562 15.3672 31.6625 17.7955 35.6262C19.0102 37.5675 20.4296 39.735 22.2875 39.6587C24.1051 39.575 24.784 38.3637 26.9775 38.3637C29.1507 38.3637 29.7883 39.6587 31.6831 39.61C33.6338 39.575 34.8619 37.66 36.0341 35.7012C37.4378 33.4762 38.0016 31.285 38.0239 31.1725C37.9781 31.155 34.2355 29.5587 34.1986 24.73Z" fill="#468D80"/>
<path d="M30.6193 12.8825C31.5969 11.5162 32.2658 9.65749 32.0801 7.77124C30.6652 7.84124 28.8957 8.86499 27.8767 10.2012C26.9752 11.3787 26.1699 13.3087 26.3779 15.1237C27.9673 15.2562 29.5993 14.2275 30.6193 12.8825Z" fill="#468D80"/>
<path d="M60.5028 39.3799H57.9627L56.5712 34.4936H51.7348L50.4093 39.3799H47.9363L52.728 22.7449H55.6876L60.5028 39.3799ZM56.1518 32.4436L54.8935 28.0999C54.7604 27.6561 54.5109 26.6111 54.1429 24.9661H54.0982C53.9517 25.6736 53.7157 26.7186 53.3913 28.0999L52.1553 32.4436H56.1518Z" fill="#468D80"/>
<path d="M72.8255 33.2349C72.8255 35.2749 72.3322 36.8874 71.3457 38.0712C70.4621 39.1249 69.3648 39.6512 68.055 39.6512C66.6412 39.6512 65.6256 39.0837 65.007 37.9487H64.9623V44.2674H62.5776V31.3337C62.5776 30.0512 62.5474 28.7349 62.4893 27.3849H64.5865L64.7196 29.2862H64.7643C65.5596 27.8537 66.7665 27.1387 68.3861 27.1387C69.6522 27.1387 70.7092 27.6974 71.5548 28.8162C72.4027 29.9362 72.8255 31.4087 72.8255 33.2349ZM70.3961 33.3324C70.3961 32.1649 70.1612 31.2024 69.6892 30.4449C69.1735 29.6549 68.4812 29.2599 67.6132 29.2599C67.0248 29.2599 66.4902 29.4799 66.0126 29.9137C65.5339 30.3512 65.2207 30.9224 65.0742 31.6299C65.0003 31.9599 64.9634 32.2299 64.9634 32.4424V34.4424C64.9634 35.3149 65.2028 36.0512 65.6815 36.6524C66.1602 37.2537 66.7821 37.5537 67.5472 37.5537C68.4454 37.5537 69.1444 37.1662 69.6444 36.3937C70.1455 35.6199 70.3961 34.5999 70.3961 33.3324Z" fill="#468D80"/>
<path d="M85.1708 33.2349C85.1708 35.2749 84.6775 36.8874 83.6899 38.0712C82.8074 39.1249 81.7101 39.6512 80.4003 39.6512C78.9865 39.6512 77.9709 39.0837 77.3535 37.9487H77.3087V44.2674H74.9241V31.3337C74.9241 30.0512 74.8939 28.7349 74.8357 27.3849H76.9329L77.066 29.2862H77.1108C77.9049 27.8537 79.1118 27.1387 80.7325 27.1387C81.9976 27.1387 83.0546 27.6974 83.9024 28.8162C84.7469 29.9362 85.1708 31.4087 85.1708 33.2349ZM82.7414 33.3324C82.7414 32.1649 82.5054 31.2024 82.0334 30.4449C81.5177 29.6549 80.8276 29.2599 79.9585 29.2599C79.3691 29.2599 78.8355 29.4799 78.3568 29.9137C77.8781 30.3512 77.566 30.9224 77.4195 31.6299C77.3468 31.9599 77.3087 32.2299 77.3087 32.4424V34.4424C77.3087 35.3149 77.5481 36.0512 78.0246 36.6524C78.5033 37.2524 79.1252 37.5537 79.8925 37.5537C80.7907 37.5537 81.4898 37.1662 81.9897 36.3937C82.4908 35.6199 82.7414 34.5999 82.7414 33.3324Z" fill="#468D80"/>
<path d="M98.9733 34.715C98.9733 36.13 98.5337 37.2812 97.6512 38.17C96.6814 39.1412 95.3314 39.6262 93.5965 39.6262C91.9948 39.6262 90.7108 39.2812 89.7388 38.59L90.2913 36.3687C91.3383 37.0762 92.487 37.4312 93.7386 37.4312C94.6368 37.4312 95.3358 37.2037 95.8381 36.7512C96.338 36.2987 96.5875 35.6912 96.5875 34.9337C96.5875 34.2587 96.3816 33.69 95.9689 33.2287C95.5584 32.7675 94.8728 32.3387 93.9153 31.9425C91.3092 30.8562 90.0072 29.265 90.0072 27.1725C90.0072 25.805 90.4636 24.6837 91.3774 23.8112C92.2879 22.9375 93.5026 22.5012 95.0215 22.5012C96.3761 22.5012 97.5013 22.765 98.3995 23.2912L97.8033 25.4637C96.9644 24.9537 96.0159 24.6987 94.9544 24.6987C94.1155 24.6987 93.4601 24.93 92.9903 25.39C92.5932 25.8012 92.3941 26.3025 92.3941 26.8962C92.3941 27.5537 92.6212 28.0975 93.0775 28.525C93.4746 28.92 94.1961 29.3475 95.243 29.8087C96.5237 30.385 97.4644 31.0587 98.0695 31.8312C98.6724 32.6012 98.9733 33.565 98.9733 34.715Z" fill="#468D80"/>
<path d="M106.858 29.385H104.229V35.2087C104.229 36.69 104.692 37.43 105.621 37.43C106.047 37.43 106.4 37.3887 106.68 37.3062L106.746 39.33C106.276 39.5262 105.657 39.625 104.891 39.625C103.95 39.625 103.214 39.3037 102.682 38.6625C102.153 38.02 101.887 36.9425 101.887 35.4287V29.3825H100.321V27.3825H101.887V25.1862L104.229 24.3962V27.3825H106.858V29.385Z" fill="#468D80"/>
<path d="M118.717 33.2836C118.717 35.1274 118.245 36.6411 117.303 37.8249C116.316 39.0436 115.005 39.6511 113.371 39.6511C111.796 39.6511 110.542 39.0674 109.607 37.8999C108.672 36.7324 108.204 35.2586 108.204 33.4824C108.204 31.6236 108.685 30.1011 109.65 28.9174C110.613 27.7324 111.913 27.1399 113.547 27.1399C115.122 27.1399 116.389 27.7236 117.346 28.8924C118.261 30.0261 118.717 31.4899 118.717 33.2836ZM116.243 33.3699C116.243 32.2636 116.031 31.3149 115.603 30.5236C115.103 29.5661 114.388 29.0886 113.462 29.0886C112.504 29.0886 111.776 29.5674 111.276 30.5236C110.847 31.3161 110.636 32.2799 110.636 33.4199C110.636 34.5261 110.847 35.4749 111.276 36.2649C111.791 37.2224 112.512 37.6999 113.441 37.6999C114.351 37.6999 115.066 37.2124 115.582 36.2399C116.021 35.4336 116.243 34.4749 116.243 33.3699Z" fill="#468D80"/>
<path d="M126.469 29.7287C126.233 29.6799 125.981 29.6549 125.717 29.6549C124.878 29.6549 124.23 30.0087 123.773 30.7174C123.376 31.3424 123.177 32.1324 123.177 33.0862V39.3799H120.793L120.816 31.1624C120.816 29.7799 120.786 28.5212 120.726 27.3862H122.803L122.891 29.6812H122.957C123.208 28.8924 123.605 28.2574 124.149 27.7812C124.68 27.3524 125.254 27.1387 125.873 27.1387C126.093 27.1387 126.292 27.1562 126.469 27.1874V29.7287Z" fill="#468D80"/>
<path d="M137.134 32.815C137.134 33.2925 137.106 33.695 137.046 34.0237H129.892C129.92 35.2087 130.266 36.115 130.93 36.74C131.533 37.2987 132.313 37.5787 133.27 37.5787C134.33 37.5787 135.296 37.39 136.165 37.0112L136.539 38.8612C135.523 39.3562 134.324 39.6025 132.94 39.6025C131.276 39.6025 129.97 39.055 129.019 37.9612C128.07 36.8675 127.595 35.3987 127.595 33.5562C127.595 31.7475 128.037 30.2412 128.922 29.04C129.848 27.7575 131.099 27.1162 132.674 27.1162C134.221 27.1162 135.392 27.7575 136.187 29.04C136.817 30.0587 137.134 31.3187 137.134 32.815ZM134.86 32.1237C134.875 31.3337 134.72 30.6512 134.397 30.075C133.984 29.3337 133.35 28.9637 132.496 28.9637C131.717 28.9637 131.083 29.325 130.598 30.05C130.201 30.6262 129.965 31.3175 129.892 32.1225H134.86V32.1237Z" fill="#468D80"/>
<path d="M55.3635 12.5114C55.3635 13.9826 54.9686 15.0901 54.1801 15.8339C53.4497 16.5201 52.4117 16.8639 51.0672 16.8639C50.4006 16.8639 49.8301 16.8314 49.3525 16.7664V8.72762C49.9756 8.61512 50.6467 8.55762 51.3715 8.55762C52.6522 8.55762 53.6175 8.86887 54.2684 9.49137C54.9977 10.1951 55.3635 11.2014 55.3635 12.5114ZM54.1275 12.5476C54.1275 11.5939 53.9016 10.8626 53.4497 10.3526C52.9978 9.84387 52.3379 9.58887 51.4688 9.58887C51.0997 9.58887 50.7854 9.61637 50.5247 9.67387V15.7851C50.669 15.8101 50.933 15.8214 51.3167 15.8214C52.2137 15.8214 52.9061 15.5426 53.3938 14.9851C53.8814 14.4276 54.1275 13.6151 54.1275 12.5476Z" fill="#468D80"/>
<path d="M61.9166 13.7963C61.9166 14.7026 61.6851 15.4451 61.222 16.0276C60.7366 16.6263 60.0935 16.9251 59.2904 16.9251C58.5163 16.9251 57.9 16.6388 57.4403 16.0638C56.9817 15.4901 56.7524 14.7663 56.7524 13.8938C56.7524 12.9813 56.9884 12.2326 57.4627 11.6513C57.937 11.0701 58.5745 10.7788 59.3776 10.7788C60.1516 10.7788 60.7735 11.0651 61.2444 11.6388C61.6918 12.1963 61.9166 12.9163 61.9166 13.7963ZM60.7008 13.8388C60.7008 13.2951 60.5957 12.8288 60.3865 12.4401C60.1404 11.9701 59.7903 11.7351 59.3351 11.7351C58.8642 11.7351 58.5063 11.9701 58.2602 12.4401C58.0499 12.8288 57.9459 13.3026 57.9459 13.8626C57.9459 14.4063 58.051 14.8726 58.2602 15.2613C58.5141 15.7313 58.8676 15.9663 59.3239 15.9663C59.7713 15.9663 60.1225 15.7276 60.3753 15.2488C60.5923 14.8526 60.7008 14.3826 60.7008 13.8388Z" fill="#468D80"/>
<path d="M70.7037 10.8988L69.0539 16.7913H67.9801L67.2967 14.2326C67.1233 13.5938 66.9824 12.9588 66.8728 12.3288H66.8515C66.7497 12.9763 66.6088 13.6101 66.4276 14.2326L65.7017 16.7913H64.6156L63.0642 10.8988H64.2689L64.865 13.7001C65.0093 14.3626 65.1279 14.9938 65.2229 15.5913H65.2442C65.3314 15.0988 65.4757 14.4713 65.6793 13.7126L66.4276 10.9001H67.3828L68.0998 13.6526C68.2731 14.3238 68.4141 14.9701 68.5226 15.5926H68.555C68.6344 14.9863 68.7541 14.3401 68.9129 13.6526L69.5527 10.9001H70.7037V10.8988Z" fill="#468D80"/>
<path d="M76.7809 16.7914H75.6087V13.4164C75.6087 12.3764 75.2552 11.8564 74.5461 11.8564C74.1982 11.8564 73.9175 11.9989 73.6994 12.2851C73.4835 12.5714 73.3739 12.9089 73.3739 13.2951V16.7901H72.2017V12.5826C72.2017 12.0651 72.1871 11.5039 72.1592 10.8964H73.1893L73.2441 11.8176H73.2766C73.413 11.5314 73.6166 11.2951 73.8839 11.1064C74.2016 10.8864 74.5573 10.7751 74.9465 10.7751C75.4387 10.7751 75.848 10.9526 76.1735 11.3089C76.5784 11.7451 76.7809 12.3964 76.7809 13.2614V16.7914Z" fill="#468D80"/>
<path d="M80.0134 16.7913H78.8423V8.19507H80.0134V16.7913Z" fill="#468D80"/>
<path d="M86.9144 13.7963C86.9144 14.7026 86.6829 15.4451 86.2198 16.0276C85.7344 16.6263 85.0901 16.9251 84.2882 16.9251C83.513 16.9251 82.8967 16.6388 82.4381 16.0638C81.9795 15.4901 81.7502 14.7663 81.7502 13.8938C81.7502 12.9813 81.9863 12.2326 82.4605 11.6513C82.9348 11.0701 83.5723 10.7788 84.3743 10.7788C85.1494 10.7788 85.7702 11.0651 86.2422 11.6388C86.6896 12.1963 86.9144 12.9163 86.9144 13.7963ZM85.6975 13.8388C85.6975 13.2951 85.5924 12.8288 85.3832 12.4401C85.1382 11.9701 84.787 11.7351 84.3329 11.7351C83.8609 11.7351 83.503 11.9701 83.258 12.4401C83.0477 12.8288 82.9437 13.3026 82.9437 13.8626C82.9437 14.4063 83.0488 14.8726 83.258 15.2613C83.5119 15.7313 83.8654 15.9663 84.3217 15.9663C84.7691 15.9663 85.1192 15.7276 85.372 15.2488C85.5901 14.8526 85.6975 14.3826 85.6975 13.8388Z" fill="#468D80"/>
<path d="M92.5877 16.7913H91.5352L91.4479 16.1126H91.4155C91.0553 16.6538 90.5419 16.9251 89.8753 16.9251C89.3775 16.9251 88.9749 16.7463 88.6718 16.3913C88.3966 16.0688 88.259 15.6676 88.259 15.1913C88.259 14.4713 88.5275 13.9226 89.0677 13.5426C89.6068 13.1626 90.3652 12.9763 91.3417 12.9851V12.8751C91.3417 12.0988 90.977 11.7113 90.2466 11.7113C89.7265 11.7113 89.2679 11.8576 88.872 12.1476L88.6337 11.2876C89.1236 10.9488 89.7288 10.7788 90.4424 10.7788C91.8204 10.7788 92.5116 11.5913 92.5116 13.2163V15.3863C92.5116 15.9751 92.5374 16.4438 92.5877 16.7913ZM91.3707 14.7663V13.8576C90.0777 13.8326 89.4312 14.2288 89.4312 15.0451C89.4312 15.3526 89.5051 15.5826 89.6561 15.7363C89.8071 15.8901 89.9994 15.9663 90.2287 15.9663C90.486 15.9663 90.7265 15.8751 90.9457 15.6938C91.1661 15.5113 91.3014 15.2801 91.3517 14.9963C91.364 14.9326 91.3707 14.8551 91.3707 14.7663Z" fill="#468D80"/>
<path d="M99.2484 16.7913H98.2082L98.1534 15.8451H98.1209C97.7887 16.5651 97.2228 16.9251 96.4275 16.9251C95.7922 16.9251 95.2631 16.6463 94.8437 16.0888C94.4242 15.5313 94.2151 14.8076 94.2151 13.9188C94.2151 12.9651 94.4421 12.1926 94.8985 11.6026C95.3403 11.0526 95.8817 10.7776 96.5259 10.7776C97.234 10.7776 97.7295 11.0438 98.0113 11.5776H98.0337V8.19507H99.207V15.2038C99.207 15.7776 99.2205 16.3063 99.2484 16.7913ZM98.0337 14.3063V13.3238C98.0337 13.1538 98.0225 13.0163 98.0013 12.9113C97.9353 12.5963 97.7932 12.3313 97.5773 12.1176C97.3592 11.9038 97.0964 11.7963 96.7933 11.7963C96.3559 11.7963 96.0137 11.9901 95.762 12.3788C95.5126 12.7676 95.3862 13.2638 95.3862 13.8701C95.3862 14.4526 95.5059 14.9251 95.7463 15.2888C96.0002 15.6763 96.3425 15.8701 96.7709 15.8701C97.1557 15.8701 97.4633 15.7088 97.697 15.3851C97.923 15.0863 98.0337 14.7263 98.0337 14.3063Z" fill="#468D80"/>
<path d="M109.274 13.7963C109.274 14.7026 109.042 15.4451 108.579 16.0276C108.094 16.6263 107.452 16.9251 106.648 16.9251C105.875 16.9251 105.258 16.6388 104.798 16.0638C104.339 15.4901 104.11 14.7663 104.11 13.8938C104.11 12.9813 104.346 12.2326 104.82 11.6513C105.294 11.0701 105.932 10.7788 106.736 10.7788C107.509 10.7788 108.132 11.0651 108.602 11.6388C109.049 12.1963 109.274 12.9163 109.274 13.7963ZM108.059 13.8388C108.059 13.2951 107.954 12.8288 107.745 12.4401C107.498 11.9701 107.149 11.7351 106.692 11.7351C106.223 11.7351 105.865 11.9701 105.617 12.4401C105.407 12.8288 105.303 13.3026 105.303 13.8626C105.303 14.4063 105.408 14.8726 105.617 15.2613C105.871 15.7313 106.225 15.9663 106.681 15.9663C107.129 15.9663 107.481 15.7276 107.734 15.2488C107.949 14.8526 108.059 14.3826 108.059 13.8388Z" fill="#468D80"/>
<path d="M115.576 16.7914H114.405V13.4164C114.405 12.3764 114.052 11.8564 113.342 11.8564C112.994 11.8564 112.713 11.9989 112.496 12.2851C112.279 12.5714 112.171 12.9089 112.171 13.2951V16.7901H110.997V12.5826C110.997 12.0651 110.984 11.5039 110.956 10.8964H111.985L112.04 11.8176H112.072C112.21 11.5314 112.413 11.2951 112.679 11.1064C112.998 10.8864 113.353 10.7751 113.743 10.7751C114.234 10.7751 114.644 10.9526 114.969 11.3089C115.375 11.7451 115.576 12.3964 115.576 13.2614V16.7914Z" fill="#468D80"/>
<path d="M123.466 11.8801H122.175V14.7426C122.175 15.4701 122.404 15.8339 122.858 15.8339C123.069 15.8339 123.243 15.8139 123.381 15.7726L123.411 16.7664C123.179 16.8639 122.875 16.9126 122.5 16.9126C122.037 16.9126 121.677 16.7551 121.417 16.4401C121.155 16.1251 121.025 15.5951 121.025 14.8514V11.8801H120.254V10.8989H121.025V9.8189L122.174 9.4314V10.8976H123.465V11.8801H123.466Z" fill="#468D80"/>
<path d="M129.671 16.7913H128.498V13.4413C128.498 12.3851 128.144 11.8563 127.436 11.8563C126.893 11.8563 126.521 12.1626 126.318 12.7751C126.283 12.9038 126.263 13.0613 126.263 13.2463V16.7901H125.092V8.19507H126.263V11.7463H126.285C126.654 11.1001 127.183 10.7776 127.869 10.7776C128.355 10.7776 128.756 10.9551 129.075 11.3113C129.472 11.7551 129.671 12.4151 129.671 13.2876V16.7913Z" fill="#468D80"/>
<path d="M136.072 13.5663C136.072 13.8013 136.057 13.9988 136.029 14.1601H132.513C132.529 14.7426 132.697 15.1863 133.022 15.4938C133.32 15.7688 133.703 15.9063 134.173 15.9063C134.693 15.9063 135.167 15.8138 135.595 15.6276L135.778 16.5376C135.278 16.7801 134.69 16.9013 134.009 16.9013C133.192 16.9013 132.549 16.6326 132.084 16.0951C131.616 15.5576 131.385 14.8363 131.385 13.9313C131.385 13.0426 131.6 12.3026 132.035 11.7126C132.49 11.0826 133.104 10.7676 133.879 10.7676C134.637 10.7676 135.213 11.0826 135.602 11.7126C135.917 12.2126 136.072 12.8313 136.072 13.5663ZM134.954 13.2276C134.963 12.8388 134.885 12.5038 134.727 12.2213C134.523 11.8576 134.213 11.6751 133.794 11.6751C133.411 11.6751 133.099 11.8526 132.861 12.2088C132.666 12.4926 132.551 12.8313 132.513 13.2276H134.954Z" fill="#468D80"/>
</svg>
