<svg width="152" height="48" viewBox="0 0 152 48" fill="none" xmlns="http://www.w3.org/2000/svg">
<path d="M145.907 48H6.09259C3.01806 48 0.5 45.2985 0.5 42V6C0.5 2.7015 3.01806 2.53677e-06 6.09259 2.53677e-06H145.907C148.982 2.53677e-06 151.5 2.7015 151.5 6V42C151.5 45.2985 148.982 48 145.907 48Z" fill="white"/>
<path d="M145.907 0.961503C148.497 0.961503 150.604 3.222 150.604 6V42C150.604 44.778 148.497 47.0385 145.907 47.0385H6.09259C3.50322 47.0385 1.39621 44.778 1.39621 42V6C1.39621 3.222 3.50322 0.961503 6.09259 0.961503H145.907ZM145.907 2.53677e-06H6.09259C3.01806 2.53677e-06 0.5 2.7015 0.5 6V42C0.5 45.2985 3.01806 48 6.09259 48H145.907C148.982 48 151.5 45.2985 151.5 42V6C151.5 2.7015 148.982 2.53677e-06 145.907 2.53677e-06Z" fill="#A6A6A6"/>
<path d="M53.5372 12.2925C53.5372 13.2945 53.2576 14.097 52.7067 14.6955C52.0734 15.405 51.2485 15.762 50.2376 15.762C49.2715 15.762 48.4466 15.399 47.7699 14.6835C47.0918 13.9575 46.7534 13.0665 46.7534 12C46.7534 10.9335 47.0918 10.0425 47.7699 9.32254C48.4466 8.60104 49.2715 8.23804 50.2376 8.23804C50.7186 8.23804 51.1772 8.34454 51.6148 8.54254C52.051 8.74204 52.4061 9.01204 52.6634 9.34504L52.079 9.97804C51.6302 9.40954 51.0192 9.12904 50.2376 9.12904C49.5329 9.12904 48.9219 9.39304 48.4032 9.92554C47.8901 10.4595 47.6329 11.151 47.6329 12C47.6329 12.849 47.8901 13.5465 48.4032 14.0805C48.9219 14.607 49.5329 14.877 50.2376 14.877C50.9856 14.877 51.6148 14.607 52.1111 14.0745C52.4383 13.722 52.6242 13.236 52.6732 12.615H50.2376V11.748H53.4869C53.526 11.9355 53.5372 12.117 53.5372 12.2925Z" fill="#468D80" stroke="#468D80" stroke-width="0.16" stroke-miterlimit="10"/>
<path d="M58.6923 9.28645H55.6402V11.5665H58.3917V12.4335H55.6402V14.7135H58.6923V15.597H54.7761V8.40295H58.6923V9.28645Z" fill="#468D80" stroke="#468D80" stroke-width="0.16" stroke-miterlimit="10"/>
<path d="M62.3302 15.597H61.4661V9.28645H59.594V8.40295H64.2037V9.28645H62.3302V15.597Z" fill="#468D80" stroke="#468D80" stroke-width="0.16" stroke-miterlimit="10"/>
<path d="M67.5398 15.597V8.40295H68.4025V15.597H67.5398Z" fill="#468D80" stroke="#468D80" stroke-width="0.16" stroke-miterlimit="10"/>
<path d="M72.2264 15.597H71.3693V9.28645H69.4902V8.40295H74.1055V9.28645H72.2264V15.597Z" fill="#468D80" stroke="#468D80" stroke-width="0.16" stroke-miterlimit="10"/>
<path d="M82.8328 14.6715C82.1715 15.399 81.3522 15.762 80.3749 15.762C79.392 15.762 78.5727 15.399 77.9113 14.6715C77.2514 13.9455 76.9229 13.0545 76.9229 12C76.9229 10.9455 77.2514 10.0545 77.9113 9.32854C78.5727 8.60104 79.392 8.23804 80.3749 8.23804C81.3466 8.23804 82.1659 8.60104 82.8272 9.33454C83.4928 10.0665 83.8213 10.9515 83.8213 12C83.8213 13.0545 83.4928 13.9455 82.8328 14.6715ZM78.5503 14.0685C79.048 14.607 79.6534 14.877 80.3749 14.877C81.0907 14.877 81.7017 14.607 82.1939 14.0685C82.6902 13.53 82.9419 12.8385 82.9419 12C82.9419 11.1615 82.6902 10.47 82.1939 9.93154C81.7017 9.39304 81.0907 9.12304 80.3749 9.12304C79.6534 9.12304 79.048 9.39304 78.5503 9.93154C78.054 10.47 77.8023 11.1615 77.8023 12C77.8023 12.8385 78.054 13.53 78.5503 14.0685Z" fill="#468D80" stroke="#468D80" stroke-width="0.16" stroke-miterlimit="10"/>
<path d="M85.0334 15.597V8.40295H86.0821L89.3425 13.998H89.3803L89.3425 12.615V8.40295H90.2052V15.597H89.3048L85.8905 9.72595H85.8528L85.8905 11.115V15.597H85.0334Z" fill="#468D80" stroke="#468D80" stroke-width="0.16" stroke-miterlimit="10"/>
<path d="M76.7101 26.1031C74.0829 26.1031 71.9368 28.2481 71.9368 31.2076C71.9368 34.1431 74.0829 36.3106 76.7101 36.3106C79.3428 36.3106 81.4889 34.1431 81.4889 31.2076C81.4889 28.2481 79.3428 26.1031 76.7101 26.1031ZM76.7101 34.3006C75.2686 34.3006 74.0284 33.0241 74.0284 31.2076C74.0284 29.3671 75.2686 28.1131 76.7101 28.1131C78.1515 28.1131 79.3973 29.3671 79.3973 31.2076C79.3973 33.0241 78.1515 34.3006 76.7101 34.3006ZM66.2953 26.1031C63.6625 26.1031 61.522 28.2481 61.522 31.2076C61.522 34.1431 63.6625 36.3106 66.2953 36.3106C68.9266 36.3106 71.0685 34.1431 71.0685 31.2076C71.0685 28.2481 68.9266 26.1031 66.2953 26.1031ZM66.2953 34.3006C64.8524 34.3006 63.608 33.0241 63.608 31.2076C63.608 29.3671 64.8524 28.1131 66.2953 28.1131C67.7367 28.1131 68.9769 29.3671 68.9769 31.2076C68.9769 33.0241 67.7367 34.3006 66.2953 34.3006ZM53.9021 27.6676V29.8366H58.7299C58.5887 31.0486 58.2112 31.9396 57.6323 32.5606C56.9277 33.3106 55.8301 34.1431 53.9021 34.1431C50.931 34.1431 48.6045 31.5706 48.6045 28.3831C48.6045 25.1956 50.931 22.6231 53.9021 22.6231C55.5085 22.6231 56.6774 23.2966 57.5401 24.1696L58.9648 22.6411C57.7582 21.4051 56.1531 20.4556 53.9021 20.4556C49.8279 20.4556 46.4038 24.0121 46.4038 28.3831C46.4038 32.7541 49.8279 36.3106 53.9021 36.3106C56.1042 36.3106 57.7582 35.5366 59.0584 34.0846C60.3909 32.6551 60.8061 30.6451 60.8061 29.0221C60.8061 28.5181 60.767 28.0546 60.6971 27.6676H53.9021ZM104.579 29.3491C104.186 28.2076 102.974 26.1031 100.505 26.1031C98.0584 26.1031 96.0213 28.1716 96.0213 31.2076C96.0213 34.0666 98.0374 36.3106 100.74 36.3106C102.925 36.3106 104.186 34.8811 104.705 34.0486L103.083 32.8891C102.542 33.7381 101.805 34.3006 100.74 34.3006C99.6816 34.3006 98.9224 33.7801 98.4359 32.7541L104.799 29.9296L104.579 29.3491ZM98.0919 31.0486C98.0374 29.0806 99.5166 28.0726 100.576 28.0726C101.407 28.0726 102.112 28.5181 102.346 29.1556L98.0919 31.0486ZM92.9202 36.0001H95.0118V21.0001H92.9202V36.0001ZM89.4947 27.2401H89.4248C88.955 26.6431 88.0588 26.1031 86.9235 26.1031C84.5411 26.1031 82.3628 28.3471 82.3628 31.2241C82.3628 34.0846 84.5411 36.3106 86.9235 36.3106C88.0588 36.3106 88.955 35.7661 89.4248 35.1511H89.4947V35.8831C89.4947 37.8346 88.523 38.8831 86.9557 38.8831C85.6778 38.8831 84.885 37.8931 84.5579 37.0606L82.7389 37.8751C83.2632 39.2281 84.6515 40.8931 86.9557 40.8931C89.408 40.8931 91.4773 39.3451 91.4773 35.5786V26.4136H89.4947V27.2401ZM87.1025 34.3006C85.661 34.3006 84.4544 33.0061 84.4544 31.2241C84.4544 29.4256 85.661 28.1131 87.1025 28.1131C88.523 28.1131 89.6429 29.4256 89.6429 31.2241C89.6429 33.0061 88.523 34.3006 87.1025 34.3006ZM114.372 21.0001H109.369V36.0001H111.455V30.3166H114.372C116.689 30.3166 118.961 28.5181 118.961 25.6576C118.961 22.7986 116.683 21.0001 114.372 21.0001ZM114.426 28.2301H111.455V23.0866H114.426C115.984 23.0866 116.873 24.4741 116.873 25.6576C116.873 26.8186 115.984 28.2301 114.426 28.2301ZM127.322 26.0746C125.814 26.0746 124.247 26.7886 123.603 28.3711L125.454 29.2036C125.852 28.3711 126.585 28.1011 127.359 28.1011C128.442 28.1011 129.539 28.7986 129.556 30.0301V30.1876C129.178 29.9536 128.37 29.6071 127.376 29.6071C125.382 29.6071 123.351 30.7846 123.351 32.9821C123.351 34.9921 124.984 36.2866 126.82 36.2866C128.223 36.2866 128.998 35.6071 129.485 34.8166H129.556V35.9761H131.571V30.2221C131.571 27.5626 129.719 26.0746 127.322 26.0746ZM127.07 34.2946C126.388 34.2946 125.437 33.9316 125.437 33.0241C125.437 31.8631 126.623 31.4176 127.649 31.4176C128.567 31.4176 128.998 31.6351 129.556 31.9216C129.392 33.3106 128.278 34.2946 127.07 34.2946ZM138.911 26.4031L136.513 32.9056H136.442L133.963 26.4031H131.713L135.438 35.4901L133.313 40.5466H135.492L141.232 26.4031H138.911ZM120.107 36.0001H122.199V21.0001H120.107V36.0001Z" fill="#468D80"/>
<path d="M12.1718 9.04653C11.8432 9.41553 11.6531 9.99003 11.6531 10.734V37.272C11.6531 38.016 11.8432 38.5905 12.1718 38.9595L12.2529 39.0405L26.1141 24.1755V23.8245L12.2529 8.95953L12.1718 9.04653Z" fill="url(#paint0_linear_139_1802)"/>
<path d="M30.7295 29.1329L26.1143 24.1754V23.8244L30.7351 18.8669L30.8386 18.9314L36.311 22.2719C37.8727 23.2199 37.8727 24.7799 36.311 25.7339L30.8386 29.0684L30.7295 29.1329Z" fill="url(#paint1_linear_139_1802)"/>
<path d="M30.8385 29.0685L26.1142 24L12.1719 38.9595C12.6906 39.5445 13.5365 39.615 14.4984 39.03L30.8385 29.0685Z" fill="url(#paint2_linear_139_1802)"/>
<path d="M30.8385 18.9315L14.4984 8.97C13.5365 8.391 12.6906 8.4615 12.1719 9.0465L26.1142 24L30.8385 18.9315Z" fill="url(#paint3_linear_139_1802)"/>
<defs>
<linearGradient id="paint0_linear_139_1802" x1="24.8834" y1="37.5484" x2="4.79421" y2="18.8233" gradientUnits="userSpaceOnUse">
<stop stop-color="#468D80"/>
<stop offset="0.0066" stop-color="#00A1FF"/>
<stop offset="0.2601" stop-color="#00BEFF"/>
<stop offset="0.5122" stop-color="#00D2FF"/>
<stop offset="0.7604" stop-color="#00DFFF"/>
<stop offset="1" stop-color="#00E3FF"/>
</linearGradient>
<linearGradient id="paint1_linear_139_1802" x1="38.3446" y1="23.9983" x2="11.2799" y2="23.9983" gradientUnits="userSpaceOnUse">
<stop stop-color="#FFE000"/>
<stop offset="0.4087" stop-color="#FFBD00"/>
<stop offset="0.7754" stop-color="#FFA500"/>
<stop offset="1" stop-color="#FF9C00"/>
</linearGradient>
<linearGradient id="paint2_linear_139_1802" x1="28.2696" y1="21.2447" x2="1.02701" y2="-4.14812" gradientUnits="userSpaceOnUse">
<stop stop-color="#FF3A44"/>
<stop offset="1" stop-color="#C31162"/>
</linearGradient>
<linearGradient id="paint3_linear_139_1802" x1="8.6623" y1="47.7886" x2="20.8273" y2="36.4497" gradientUnits="userSpaceOnUse">
<stop stop-color="#32A071"/>
<stop offset="0.0685" stop-color="#2DA771"/>
<stop offset="0.4762" stop-color="#15CF74"/>
<stop offset="0.8009" stop-color="#06E775"/>
<stop offset="1" stop-color="#00F076"/>
</linearGradient>
</defs>
</svg>
